<?xml version="1.0" standalone="no"?><!DOCTYPE svg PUBLIC "-//W3C//DTD SVG 1.1//EN" "http://www.w3.org/Graphics/SVG/1.1/DTD/svg11.dtd"><svg t="1489255648583" class="icon" style="" viewBox="0 0 1024 1024" version="1.1" xmlns="http://www.w3.org/2000/svg" p-id="2323" xmlns:xlink="http://www.w3.org/1999/xlink" width="48" height="48"><defs><style type="text/css"></style></defs><path d="M512 0C229.229714 0 0 229.229714 0 512 0 794.770286 229.229714 1024 512 1024 794.770286 1024 1024 794.770286 1024 512 1024 229.229714 794.770286 0 512 0L512 0ZM309.174857 766.317714C280.210286 766.317714 256.731429 742.838857 256.731429 713.910857 256.731429 684.946286 280.210286 661.467429 309.174857 661.467429 338.102857 661.467429 361.581714 684.946286 361.581714 713.910857 361.581714 742.838857 338.102857 766.317714 309.174857 766.317714L309.174857 766.317714ZM518.802286 767.378286C518.802286 622.372571 400.859429 504.429714 255.963429 504.429714L255.963429 393.728C462.409143 393.728 629.577143 561.078857 629.577143 767.378286L518.802286 767.378286 518.802286 767.378286ZM720.091429 767.378286C720.091429 511.414857 511.963429 303.140571 255.963429 303.140571L255.963429 192.438857C573.513143 192.438857 830.866286 449.938286 830.866286 767.378286L720.091429 767.378286 720.091429 767.378286Z" p-id="2324"></path></svg>