<?xml version="1.0" standalone="no"?><!DOCTYPE svg PUBLIC "-//W3C//DTD SVG 1.1//EN" "http://www.w3.org/Graphics/SVG/1.1/DTD/svg11.dtd"><svg t="1489411032186" class="icon" style="" viewBox="0 0 1024 1024" version="1.1" xmlns="http://www.w3.org/2000/svg" p-id="11004" xmlns:xlink="http://www.w3.org/1999/xlink" width="48" height="48"><defs><style type="text/css"></style></defs><path d="M311.994 422.23c-44.885-14.885-93.724-22.559-143.726-23.025-12.326-1.395-24.187 2.791-32.792 11.628-15.582 15.582-16.513 40.001-2.093 54.188 3.953 3.953 9.070 6.743 15.35 8.373l1.395 1.395h3.953c41.862-0.233 81.398 6.743 128.377 22.094 154.889 50.933 258.381 193.728 270.008 372.571l0.93 9.535 0.93-0.233c1.395 5.116 4.185 9.767 7.907 13.255 13.489 13.489 36.513 12.558 50.933-1.861 4.884-4.884 8.373-10.931 10-17.443l2.093-0.232-0.465-8.604c-9.302-211.868-129.073-381.409-312.801-441.643M163.848 752.24c-30.001 29.768-30.001 78.607 0 108.608 29.768 29.768 78.608 29.768 108.608 0 29.768-29.768 29.768-78.608 0-108.376-30.001-30.466-78.84-30.233-108.608-0.232M478.511 169.894c-95.585-36.513-197.216-53.258-297.453-45.816l-6.046 6.046c-26.745 9.767-32.559 43.955-13.721 63.025 4.419 4.419 14.652 9.303 21.164 10.931 88.608-6.977 184.89 6.046 269.312 38.141 256.521 97.911 409.084 349.547 363.036 597.695l-1.861 10.931h2.791c1.395 6.977 5.116 13.489 10.233 18.837 15.35 15.349 39.769 15.116 54.886 0 4.185-4.185 7.442-9.767 9.303-15.582h1.395l1.395-7.907c48.839-281.405-125.353-565.834-414.433-676.302z" p-id="11005" fill="#d4237a"></path></svg>