<?xml version="1.0" standalone="no"?><!DOCTYPE svg PUBLIC "-//W3C//DTD SVG 1.1//EN" "http://www.w3.org/Graphics/SVG/1.1/DTD/svg11.dtd"><svg t="1489410987250" class="icon" style="" viewBox="0 0 1024 1024" version="1.1" xmlns="http://www.w3.org/2000/svg" p-id="9650" xmlns:xlink="http://www.w3.org/1999/xlink" width="48" height="48"><defs><style type="text/css"></style></defs><path d="M85.943906 501.737262l181.932586 0c3.973498-60.868299 0.205685-191.848423 0.889253-284.483216l-88.979544 0c-24.834618 54.56985-48.120974 99.354845-94.047979 116.809379-39.552831 15.035438-53.400211 7.997138-69.62473 5.990434C36.175409 342.520027 105.158527 92.175329 138.931724 47.208185c35.509748-47.208185 94.459349-47.208185 94.459349-47.208185-4.455475 52.281737-30.366611 119.364575-40.395012 141.668557l337.700255 0 0.294712 75.586512L348.146677 217.255069c-0.664126 91.309612 3.406586 222.285642 0.112564 284.483216l210.997552 0-0.936325 76.414367-213.328643-1.235131c-2.01182 17.23043-3.813862 56.713676-5.779633 71.931263 0 0 112.171756 117.310799 171.715897 193.401802l0 130.838907c-63.498196-84.636632-195.962114-242.529709-195.962114-242.529709-79.793324 202.4949-191.095269 275.526217-191.095269 275.526217L0.025071 1006.086002c0 0 242.440681-265.838577 260.971733-427.934372L7.887133 578.151629 85.943906 501.737262zM599.155501 136.871297l422.678672 0 0 763.556293-171.857113 0.683569L721.744513 1006.086002l-51.963489-105.658412-70.625524 0L599.155501 136.871297zM943.459151 210.30989 677.555082 210.30989 677.555082 810.625308l15.260565 0 45.38363 94.417393 117.034507-94.417393 88.226391 0L943.460174 210.30989z" p-id="9651" fill="#1296db"></path></svg>